<svg xmlns="http://www.w3.org/2000/svg" shape-rendering="geometricPrecision" text-rendering="geometricPrecision" image-rendering="optimizeQuality" fill-rule="evenodd" clip-rule="evenodd" viewBox="0 0 512 400.178"><path fill="#3C4D7A" fill-rule="nonzero" d="M28.157 85.6V51.69c0-9.795 7.944-17.74 17.739-17.74h10.117V17.74C56.013 7.945 63.957 0 73.752 0H236.46c9.795 0 17.739 7.945 17.739 17.74v16.21h211.727c9.794 0 17.739 7.945 17.739 17.74V85.6h10.596c9.795 0 17.739 7.944 17.739 17.739 0 1.3-.141 2.568-.409 3.791l-34.989 255.468c-2.779 20.478-18.169 37.58-39.736 37.58H67.085c-21.708 0-37.641-17.223-39.823-38.157L.093 105.139c-.992-9.718 6.08-18.406 15.798-19.399l1.801-.093V85.6h10.465z"/><path fill="#88BCF4" d="M45.896 85.603h420.03V51.69H236.46V17.74H73.752v33.95H45.896z"/><path fill="#fff" d="M494.261 103.339l-35.187 256.902c-1.643 12.068-10.026 22.198-22.208 22.198H67.085c-12.199 0-20.951-10.063-22.225-22.218L17.692 103.339h476.569z"/></svg>